<svg width="64" height="64" viewBox="0 0 64 64" fill="none" xmlns="http://www.w3.org/2000/svg">
  <g opacity="0.3">
    <path d="M12 10H52" stroke="currentColor" stroke-width="0.5" stroke-dasharray="2 4"/>
    <path d="M8 20H60" stroke="currentColor" stroke-width="0.5" stroke-dasharray="1 3"/>
    <path d="M8 44H60" stroke="currentColor" stroke-width="0.5" stroke-dasharray="1 3"/>
    <path d="M12 54H52" stroke="currentColor" stroke-width="0.5" stroke-dasharray="2 4"/>
  </g>
  <rect x="11" y="15" width="42" height="34" rx="5" stroke="currentColor" stroke-width="1" opacity="0.2"/>
  <rect x="12" y="16" width="40" height="32" rx="4" stroke="currentColor" stroke-width="2"/>
  <rect x="14" y="18" width="36" height="28" rx="2" fill="currentColor" opacity="0.03"/>
  <path d="M18 16L22 6L26 16" stroke="currentColor" stroke-width="2" stroke-linejoin="round"/>
  <circle cx="22" cy="12" r="1.5" fill="currentColor" opacity="0.8"/>
  <path d="M38 16L42 6L46 16" stroke="currentColor" stroke-width="2" stroke-linejoin="round"/>
  <circle cx="42" cy="12" r="1.5" fill="currentColor" opacity="0.8"/>
  <path d="M20 26L26 32L20 38" stroke="currentColor" stroke-width="2.5" stroke-linecap="round" stroke-linejoin="round"/>
  <rect x="30" y="36" width="10" height="2.5" rx="1" fill="currentColor"/>
  <circle cx="17.5" cy="21.5" r="1.5" fill="currentColor" opacity="0.4"/>
  <circle cx="23.5" cy="21.5" r="1.5" fill="currentColor" opacity="0.4"/>
  <circle cx="29.5" cy="21.5" r="1.5" fill="currentColor" opacity="0.4"/>
</svg>
